<svg width="20" height="20" viewBox="0 0 20 20" fill="none" xmlns="http://www.w3.org/2000/svg">
<path d="M14.294 16.8721H8.24078C5.65656 16.8721 3.55412 14.7696 3.55412 12.1854V7.3816C3.55412 4.9793 2.35676 2.75568 0.351226 1.43334C-0.0089437 1.19588 -0.108379 0.71144 0.129078 0.35127C0.366535 -0.0089383 0.85094 -0.108413 1.21119 0.129123C2.35606 0.883987 3.28488 1.87959 3.94905 3.02587C4.09258 3.18666 5.24995 4.41339 7.14726 4.41339H16.142C18.596 4.3675 20.5168 6.83022 19.8752 9.19893L18.8398 13.3259C18.3159 15.4138 16.4466 16.8721 14.294 16.8721V16.8721ZM4.91927 5.53432C5.04913 6.13425 5.11634 6.75285 5.11634 7.3816V12.1854C5.11634 13.9082 6.51796 15.3099 8.24078 15.3099H14.294C15.7291 15.3099 16.9753 14.3377 17.3245 12.9458L18.3599 8.81877C18.7412 7.41129 17.5997 5.94839 16.142 5.97561H7.14723C6.28914 5.97561 5.54224 5.7906 4.91927 5.53432V5.53432ZM7.85022 19.0201C7.85022 18.4809 7.41308 18.0437 6.87384 18.0437C5.57829 18.0953 5.57942 19.9454 6.87384 19.9965C7.41308 19.9965 7.85022 19.5594 7.85022 19.0201ZM15.6223 19.0201C15.6223 18.4809 15.1851 18.0437 14.6459 18.0437C13.3503 18.0953 13.3515 19.9454 14.6459 19.9965C15.1851 19.9965 15.6223 19.5594 15.6223 19.0201ZM16.9231 8.31893C16.9231 7.88753 16.5734 7.53783 16.142 7.53783H7.45967C6.42329 7.57907 6.42407 9.05915 7.45967 9.10004H16.142C16.5734 9.10004 16.9231 8.75034 16.9231 8.31893Z" fill="#3D3D3D"/>
</svg>
