<svg width="22" height="22" viewBox="0 0 22 22" fill="none" xmlns="http://www.w3.org/2000/svg">
<path d="M11.8333 4.63636H21M11.8333 4.63636C11.8333 5.60079 11.4821 6.52571 10.857 7.20766C10.2319 7.88961 9.38405 8.27273 8.5 8.27273C7.61595 8.27273 6.7681 7.88961 6.14298 7.20766C5.51786 6.52571 5.16667 5.60079 5.16667 4.63636M11.8333 4.63636C11.8333 3.67194 11.4821 2.74702 10.857 2.06507C10.2319 1.38312 9.38405 1 8.5 1C7.61595 1 6.7681 1.38312 6.14298 2.06507C5.51786 2.74702 5.16667 3.67194 5.16667 4.63636M1 4.63636H5.16667M1 17.3636H10.1667M10.1667 17.3636C10.1667 18.3281 10.5179 19.253 11.143 19.9349C11.7681 20.6169 12.6159 21 13.5 21C14.3841 21 15.2319 20.6169 15.857 19.9349C16.4821 19.253 16.8333 18.3281 16.8333 17.3636M10.1667 17.3636C10.1667 16.3992 10.5179 15.4743 11.143 14.7923C11.7681 14.1104 12.6159 13.7273 13.5 13.7273C14.3841 13.7273 15.2319 14.1104 15.857 14.7923C16.4821 15.4743 16.8333 16.3992 16.8333 17.3636M16.8333 17.3636H18.9167H21" stroke="#3D3D3D" stroke-width="1.5" stroke-linecap="round"/>
</svg>
