<svg width="16" height="20" viewBox="0 0 16 20" fill="none" xmlns="http://www.w3.org/2000/svg">
<path d="M1.55013 5.80017C1.26195 3.9021 2.60025 2.19716 4.64466 1.57252C5.00747 1.46235 5.3986 1.49427 5.73874 1.66182C6.07888 1.82937 6.34257 2.12 6.47634 2.47478L7.13267 4.22498C7.23832 4.50654 7.25743 4.81326 7.18753 5.10575C7.11763 5.39825 6.96192 5.66318 6.74038 5.86655L4.788 7.65447C4.69164 7.7427 4.61985 7.85444 4.57965 7.97874C4.53944 8.10305 4.53221 8.23567 4.55866 8.36361L4.57677 8.44207L4.62354 8.63821C4.86695 9.59103 5.23688 10.507 5.72345 11.3616C6.25473 12.269 6.91322 13.0957 7.67885 13.8164L7.7392 13.8707C7.83667 13.9572 7.95489 14.017 8.08234 14.0442C8.20979 14.0715 8.34213 14.0652 8.46644 14.0261L10.9907 13.231C11.2775 13.1409 11.5848 13.1386 11.873 13.2244C12.1611 13.3101 12.4171 13.48 12.6081 13.7123L13.8031 15.1622C14.301 15.7658 14.2406 16.6529 13.6688 17.1855C12.1041 18.6445 9.95261 18.9433 8.45588 17.7408C6.62046 16.2617 5.0737 14.4566 3.89329 12.4162C2.70132 10.3786 1.90728 8.13369 1.55013 5.80017ZM6.13988 8.46319L7.75731 6.97853C8.20065 6.57197 8.51236 6.04218 8.65243 5.45718C8.79249 4.87218 8.75452 4.25866 8.54339 3.6954L7.88857 1.9452C7.61993 1.23119 7.08958 0.646215 6.40525 0.309091C5.72091 -0.028033 4.93391 -0.0920244 4.2041 0.130115C1.6648 0.907144 -0.373587 3.18392 0.0579287 6.02799C0.359688 8.01357 1.05524 10.5393 2.58969 13.1767C3.86328 15.3767 5.53176 17.3229 7.51137 18.9176C9.75646 20.7206 12.7529 20.105 14.6993 18.2915C15.2562 17.7729 15.5942 17.0614 15.6444 16.3021C15.6946 15.5428 15.4532 14.793 14.9693 14.2057L13.7744 12.7542C13.3921 12.2902 12.88 11.951 12.3036 11.78C11.7273 11.6091 11.113 11.6141 10.5395 11.7946L8.44381 12.454C7.90267 11.8961 7.4287 11.2768 7.03158 10.6087C6.64837 9.93308 6.34941 9.21305 6.14139 8.4647" fill="#3D3D3D"/>
</svg>
