<svg width="20" height="20" viewBox="0 0 20 20" fill="none" xmlns="http://www.w3.org/2000/svg">
<path fill-rule="evenodd" clip-rule="evenodd" d="M16.9336 0.306452C16.3427 -0.0115131 15.7132 -0.0422838 15.0484 0.0366945C14.4169 0.112596 13.6472 0.303375 12.7233 0.534155L10.562 1.07162C9.63821 1.3024 8.8696 1.49318 8.2819 1.72191C7.66209 1.96192 7.12685 2.28399 6.78001 2.84299C6.43104 3.40507 6.39678 4.00613 6.48349 4.63385C6.56592 5.22567 6.77252 5.94366 7.01873 6.79909L7.60001 8.81355C7.84622 9.67 8.05389 10.387 8.30117 10.9367C8.56344 11.5214 8.91349 12.0188 9.50868 12.3389C10.0996 12.6558 10.729 12.6876 11.3949 12.6076C12.0265 12.5327 12.7961 12.3409 13.72 12.1101L15.8813 11.5727C16.8051 11.3429 17.5737 11.1511 18.1614 10.9224C18.7812 10.6824 19.3165 10.3603 19.6633 9.80129C20.0123 9.23921 20.0465 8.63815 19.9598 8.01146C19.8774 7.41963 19.6708 6.70062 19.4246 5.84519L18.8433 3.83073C18.5971 2.9753 18.3894 2.25732 18.1421 1.70755C17.8799 1.1229 17.5277 0.625442 16.9336 0.306452ZM13.0755 2.03577C14.0657 1.7896 14.7326 1.62549 15.2486 1.56395C15.7421 1.50446 15.9787 1.55677 16.151 1.64908C16.3191 1.73934 16.4807 1.89628 16.6681 2.31578C16.8661 2.75683 17.046 3.37122 17.3114 4.29229L17.8617 6.20316C18.1282 7.12423 18.3038 7.73965 18.3691 8.21352C18.4312 8.6638 18.3755 8.86791 18.2834 9.01458C18.1903 9.16536 18.0212 9.31819 17.5609 9.49666C17.0813 9.68231 16.4154 9.85052 15.4252 10.0967L13.3699 10.6085C12.3797 10.8547 11.7128 11.0188 11.1968 11.0803C10.7023 11.1408 10.4668 11.0885 10.2944 10.9962C10.1263 10.906 9.96471 10.748 9.77737 10.3295C9.57933 9.88847 9.39949 9.27306 9.13401 8.35199L8.58378 6.44215C8.31723 5.51902 8.14167 4.90463 8.07637 4.43179C8.01428 3.98048 8.06995 3.7774 8.16201 3.6297C8.25514 3.47892 8.42428 3.32609 8.88459 3.14762C9.36416 2.96197 10.03 2.79478 11.0202 2.54759L13.0755 2.03577Z" fill="#3D3D3D"/>
<path fill-rule="evenodd" clip-rule="evenodd" d="M0.994037 2.53836C0.791229 2.49072 0.577029 2.52066 0.39688 2.62184C0.216731 2.72301 0.0848083 2.88745 0.0291002 3.08028C-0.0266079 3.2731 -0.00171805 3.47914 0.0984893 3.65467C0.198697 3.8302 0.366337 3.96142 0.565843 4.02049L2.38888 4.50564C2.8449 4.62667 3.18425 4.95695 3.29986 5.35799L5.38945 12.6025C5.3088 12.6175 5.22852 12.6353 5.14859 12.6558C3.03224 13.182 1.73909 15.2221 2.3193 17.2376C2.89736 19.2428 5.09613 20.3987 7.20392 19.8736C9.04943 19.4151 10.2687 17.8058 10.1659 16.0662L19.1794 13.822C19.2815 13.7966 19.3773 13.7522 19.4615 13.6913C19.5456 13.6305 19.6164 13.5543 19.6699 13.4672C19.7233 13.3801 19.7583 13.2838 19.7729 13.1837C19.7874 13.0836 19.7813 12.9818 19.7548 12.884C19.7283 12.7862 19.682 12.6944 19.6184 12.6138C19.5549 12.5331 19.4754 12.4653 19.3845 12.4141C19.2936 12.3629 19.1931 12.3294 19.0886 12.3154C18.9842 12.3014 18.8779 12.3073 18.7759 12.3327L9.74311 14.582C9.47282 14.0873 9.09248 13.6554 8.62896 13.3169C8.16543 12.9784 7.63 12.7415 7.06047 12.623L4.84778 4.94772C4.71167 4.48614 4.45323 4.06616 4.09757 3.72862C3.74192 3.39108 3.30115 3.14747 2.81814 3.02147L0.994037 2.53836ZM5.55323 14.1441C6.85066 13.822 8.15237 14.5431 8.48636 15.7021C8.81821 16.8509 8.09028 18.0643 6.80141 18.3853C5.50399 18.7084 4.20228 17.9863 3.86829 16.8273C3.53644 15.6785 4.26437 14.4651 5.55323 14.1441Z" fill="#3D3D3D"/>
</svg>
