<svg width="22" height="22" viewBox="0 0 22 22" fill="none" xmlns="http://www.w3.org/2000/svg">
<path d="M20.1739 5.81238C20.7026 5.2838 20.9997 4.56685 20.9998 3.81923C20.9999 3.07162 20.703 2.35459 20.1744 1.82588C19.6459 1.29717 18.9289 1.00009 18.1813 1C17.4337 0.999906 16.7166 1.2968 16.1879 1.82538L2.84193 15.1744C2.60975 15.4059 2.43805 15.6909 2.34193 16.0044L1.02093 20.3564C0.99509 20.4429 0.993138 20.5347 1.01529 20.6222C1.03743 20.7097 1.08285 20.7896 1.14673 20.8534C1.21061 20.9172 1.29055 20.9624 1.37809 20.9845C1.46563 21.0065 1.55749 21.0044 1.64393 20.9784L5.99693 19.6584C6.3101 19.5631 6.59511 19.3925 6.82693 19.1614L20.1739 5.81238Z" stroke="#3D3D3D" stroke-width="1.5" stroke-linecap="round" stroke-linejoin="round"/>
</svg>
