<svg width="170" height="93" viewBox="0 0 170 93" fill="none" xmlns="http://www.w3.org/2000/svg">
<path d="M35.2112 51.2424L127.635 20.3185C123.328 11.4924 115.023 5.24237 105.471 5.24237C89.9974 5.24237 80.7052 24.9163 80.7052 24.9163C80.7052 24.9163 71.413 5.24237 55.9392 5.24237C41.961 5.24237 30.6349 18.6337 30.6349 33.8837C30.6349 37.4815 31.283 40.9054 32.4295 44.0576C33.1274 46.4163 34.0746 48.8293 35.2112 51.2424Z" fill="#0EFFF1"/>
<path d="M51.5124 38.4592C47.9751 42.7569 43.5435 46.7825 38.6349 50.2424L127.635 20.333C123.342 11.4984 115.065 5.24237 105.546 5.24237C90.1251 5.24237 80.8644 24.9353 80.8644 24.9353C80.8644 24.9353 75.4591 13.4786 66.0493 8.03854C63.4162 19.4191 58.1002 30.4515 51.5124 38.4592Z" fill="#2BEBE0"/>
<path d="M99.2269 6.3557C96.2021 13.4464 92.3115 19.9751 87.9135 25.2823C83.9931 30.0167 79.0876 34.4592 73.6349 38.2424L127.635 20.2345C123.336 11.4576 115.048 5.24237 105.516 5.24237C103.287 5.24237 101.187 5.65311 99.2269 6.3557Z" fill="#2FDED4"/>
<path d="M48.6349 65.2755C60.3779 78.8516 74.7006 89.5667 80.6468 90.2424C90.1688 89.1445 121.175 62.3407 128.635 39.2424L48.6349 65.2755Z" fill="#A2FFF4"/>
<path d="M74.2353 56.9462C72.7422 65.5077 69.6962 74.0588 65.6349 81.6174C71.9259 86.6214 77.5003 89.8729 80.6757 90.2424C90.1919 89.1445 121.179 62.3407 128.635 39.2424L74.2353 56.9462Z" fill="#63FFEC"/>
<path d="M113.502 44.2146C110.509 51.0555 106.686 57.3579 102.36 62.4885C94.3491 72.0002 82.1797 80.3295 69.6349 84.3094C74.4059 87.7721 78.5051 89.9468 81.0437 90.2424C90.4869 89.1445 121.236 62.3407 128.635 39.2424L113.502 44.2146Z" fill="#25FFE5"/>
<path d="M45.0688 23.2972C42.7088 26.9372 39.1687 28.8472 37.1687 27.5472C35.1687 26.2472 35.4487 22.2372 37.8087 18.5972C40.1687 14.9572 43.7088 13.0472 45.7088 14.3472C47.7188 15.6472 47.4288 19.6572 45.0688 23.2972Z" fill="#B8FFFB"/>
<rect x="12.9186" y="52.9165" width="16.0666" height="32" rx="3" transform="rotate(-18.1789 12.9186 52.9165)" stroke="black" stroke-width="4"/>
<rect x="2.50779" y="64.7554" width="12.9554" height="15.3581" rx="3" transform="rotate(-18.1789 2.50779 64.7554)" stroke="black" stroke-width="4"/>
<rect x="-1.2762" y="2.52414" width="16.0666" height="32" rx="3" transform="matrix(-0.950087 0.311985 0.311985 0.950087 144.389 7.08823)" stroke="black" stroke-width="4"/>
<rect x="-1.2762" y="2.52414" width="12.9554" height="15.3581" rx="3" transform="matrix(-0.950087 0.311985 0.311985 0.950087 159.791 10.4507)" stroke="black" stroke-width="4"/>
<line x1="33.8325" y1="60.7843" x2="133.592" y2="28.0259" stroke="black" stroke-width="4"/>
</svg>
