<svg width="22" height="22" viewBox="0 0 22 22" fill="none" xmlns="http://www.w3.org/2000/svg">
<path d="M14.3333 6.55556H14.3444M1 4.33333C1 3.44928 1.35119 2.60143 1.97631 1.97631C2.60143 1.35119 3.44928 1 4.33333 1H17.6667C18.5507 1 19.3986 1.35119 20.0237 1.97631C20.6488 2.60143 21 3.44928 21 4.33333V17.6667C21 18.5507 20.6488 19.3986 20.0237 20.0237C19.3986 20.6488 18.5507 21 17.6667 21H4.33333C3.44928 21 2.60143 20.6488 1.97631 20.0237C1.35119 19.3986 1 18.5507 1 17.6667V4.33333Z" stroke="#3D3D3D" stroke-width="1.5" stroke-linecap="round" stroke-linejoin="round"/>
<path d="M1 15.4444L6.55556 9.88888C7.58667 8.89666 8.85778 8.89666 9.88889 9.88888L15.4444 15.4444" stroke="#3D3D3D" stroke-width="1.5" stroke-linecap="round" stroke-linejoin="round"/>
<path d="M13.2222 13.2222L14.3333 12.1111C15.3645 11.1189 16.6356 11.1189 17.6667 12.1111L21 15.4444" stroke="#3D3D3D" stroke-width="1.5" stroke-linecap="round" stroke-linejoin="round"/>
</svg>
