<svg width="19" height="23" viewBox="0 0 19 23" fill="none" xmlns="http://www.w3.org/2000/svg">
<path d="M17.8533 21.75C17.8533 17.8559 13.5117 14.6905 9.61763 14.6905C5.72358 14.6905 1.38196 17.8559 1.38196 21.75M9.61763 11.1619C10.8657 11.1619 12.0627 10.6661 12.9452 9.78355C13.8278 8.90102 14.3236 7.70404 14.3236 6.45595C14.3236 5.20785 13.8278 4.01088 12.9452 3.12834C12.0627 2.2458 10.8657 1.75 9.61763 1.75C8.36954 1.75 7.17256 2.2458 6.29003 3.12834C5.40749 4.01088 4.91169 5.20785 4.91169 6.45595C4.91169 7.70404 5.40749 8.90102 6.29003 9.78355C7.17256 10.6661 8.36954 11.1619 9.61763 11.1619Z" stroke="#3D3D3D" stroke-width="1.7" stroke-linecap="round" stroke-linejoin="round"/>
</svg>
